<svg width="36" height="36" viewBox="0 0 36 36" fill="none" xmlns="http://www.w3.org/2000/svg">
<path fill-rule="evenodd" clip-rule="evenodd" d="M16.5189 8.47185C17.1964 9.46951 17.5374 10.6577 17.5374 12.0455C17.5374 13.4736 17.1964 14.6237 16.5104 15.4914C16.1226 15.9779 15.558 16.424 14.8101 16.8253C15.9458 17.2625 16.8001 17.9508 17.3818 18.8924C17.9592 19.8318 18.2469 20.9774 18.2469 22.3226C18.2469 23.7081 17.9187 24.9546 17.2561 26.0532C16.8364 26.7818 16.3101 27.3983 15.6816 27.896C14.9721 28.4677 14.1368 28.8578 13.1695 29.0708C12.2022 29.2838 11.1561 29.3869 10.0247 29.3869H0V5.97656H10.7512C13.4657 6.0214 15.3854 6.85092 16.5189 8.47185ZM4.43601 10.0434V15.2089H9.84572C10.8088 15.2089 11.595 15.0138 12.2001 14.626C12.7988 14.2404 13.1035 13.5543 13.1035 12.5724C13.1035 11.4805 12.705 10.7609 11.9082 10.4089C11.22 10.1668 10.3443 10.0434 9.27897 10.0434H4.43601ZM4.43601 19.0807V25.3223H9.83719C10.8024 25.3223 11.5545 25.1855 12.0914 24.912C13.0673 24.4009 13.553 23.4278 13.553 21.9908C13.553 20.7689 13.0843 19.9349 12.1383 19.4775C11.6078 19.2242 10.8663 19.0897 9.9139 19.0807H4.43601ZM31.6976 12.4289C32.8482 12.9692 33.7942 13.8234 34.5378 14.9892C35.2175 16.0182 35.6542 17.2109 35.8524 18.5673C35.9674 19.3632 36.0164 20.5088 35.9951 22.0042H24.0103C24.0806 23.7417 24.6494 24.9591 25.7318 25.6563C26.3902 26.0913 27.1807 26.3065 28.1054 26.3065C29.0812 26.3065 29.8802 26.0442 30.4917 25.5151C30.8283 25.2281 31.1224 24.8313 31.378 24.3224H35.7693C35.6542 25.3492 35.1216 26.3917 34.1756 27.4544C32.7033 29.1358 30.6387 29.9766 27.9882 29.9766C25.7979 29.9766 23.8632 29.2681 22.1949 27.8467C20.516 26.4276 19.6829 24.1161 19.6829 20.9191C19.6829 17.9172 20.4372 15.6192 21.9457 14.0162C23.4584 12.4199 25.4186 11.6173 27.8284 11.6173C29.2602 11.6173 30.5513 11.8863 31.6976 12.4289ZM25.2631 16.3388C24.6558 16.998 24.2723 17.8925 24.1168 19.0179H31.5293C31.4526 17.8163 31.067 16.906 30.3851 16.2828C29.6948 15.6618 28.8447 15.3501 27.8305 15.3501C26.729 15.3501 25.8703 15.6797 25.2631 16.3388ZM23.0046 9.98291H32.5371V7.07063H23.0046V9.98291Z" fill="#1769FF"/>
</svg>
