<svg width="36" height="36" viewBox="0 0 36 36" fill="none" xmlns="http://www.w3.org/2000/svg">
<g clip-path="url(#clip0_282_6532)">
<path fill-rule="evenodd" clip-rule="evenodd" d="M18 36C8.05888 36 0 27.9411 0 18C0 8.05888 8.05888 0 18 0C27.9411 0 36 8.05888 36 18C36 27.9411 27.9411 36 18 36ZM9 18C9 13.032 13.032 9 18 9C22.95 9 27 13.032 27 18C27 22.968 22.95 27 18 27C13.032 27 9 22.968 9 18ZM25.686 17.928C25.65 16.11 25.02 14.454 23.94 13.14C23.778 13.356 22.482 15.03 19.674 16.164C19.854 16.524 20.016 16.902 20.178 17.28C20.205 17.343 20.232 17.4105 20.259 17.478C20.286 17.5455 20.313 17.613 20.34 17.676C22.896 17.37 25.434 17.874 25.686 17.928ZM23.094 12.258C21.744 11.07 19.944 10.332 18 10.332C17.37 10.332 16.776 10.404 16.2 10.53C16.224 10.5649 16.2658 10.6235 16.3229 10.7035C16.7366 11.283 17.9549 12.9897 19.062 15.03C21.798 14.004 22.95 12.456 23.094 12.258ZM17.568 15.498C16.29 13.23 14.922 11.322 14.724 11.052C12.582 12.06 10.98 14.04 10.458 16.434C10.4635 16.434 10.4697 16.434 10.4767 16.434C10.902 16.4343 14.0259 16.4367 17.568 15.498ZM10.314 17.784V18.018C10.314 19.98 11.052 21.78 12.294 23.148C12.2974 23.1425 12.3016 23.1358 12.3065 23.128C12.5554 22.727 14.6559 19.3435 18.54 18.09C18.5878 18.0741 18.6356 18.0617 18.6818 18.0497C18.7401 18.0345 18.7958 18.0201 18.846 18C18.648 17.55 18.432 17.118 18.216 16.686C14.382 17.838 10.638 17.802 10.314 17.784ZM13.284 24.066C14.58 25.074 16.218 25.686 18 25.686C19.062 25.686 20.088 25.47 21.006 25.074C20.898 24.39 20.448 22.05 19.368 19.242C19.35 19.242 19.332 19.242 19.314 19.26C14.976 20.772 13.428 23.778 13.284 24.066ZM20.79 18.9C21.798 21.654 22.212 23.904 22.284 24.372C24.012 23.22 25.236 21.366 25.578 19.224C25.5657 19.2207 25.5495 19.2163 25.5297 19.2108C25.1152 19.0966 23.092 18.5392 20.79 18.9Z" fill="#EA4C89"/>
</g>
<defs>
<clipPath id="clip0_282_6532">
<rect width="36" height="36" fill="white"/>
</clipPath>
</defs>
</svg>
